<?xml version="1.0" encoding="UTF-8" standalone="no"?><svg xmlns="http://www.w3.org/2000/svg" xmlns:xlink="http://www.w3.org/1999/xlink" contentStyleType="text/css" height="318px" preserveAspectRatio="none" style="width:386px;height:318px;background:#FFFFFF;" version="1.1" viewBox="0 0 386 318" width="386px" zoomAndPan="magnify"><defs/><g><text fill="#000000" font-family="sans-serif" font-size="12" lengthAdjust="spacing" textLength="48" x="53" y="16.1387">cpe_lan</text><text fill="#000000" font-family="sans-serif" font-size="12" lengthAdjust="spacing" textLength="96" x="5" y="30.1074">192.168.0.0/24</text><text fill="#000000" font-family="sans-serif" font-size="12" lengthAdjust="spacing" textLength="54" x="47" y="158.5215">cpe_wan</text><text fill="#000000" font-family="sans-serif" font-size="12" lengthAdjust="spacing" textLength="72" x="29" y="172.4902">10.1.1.0/24</text><rect fill="#E2E2F0" height="5" style="stroke:#181818;stroke-width:1.0;" width="272" x="106" y="16.4688"/><rect fill="#E2E2F0" height="5" style="stroke:#181818;stroke-width:1.0;" width="177" x="106" y="158.8516"/><path d="M196.5,21.4688 L196.5,70.6758 " fill="none" style="stroke:#181818;stroke-width:1.0;"/><text fill="#000000" font-family="sans-serif" font-size="11" lengthAdjust="spacing" textLength="68" x="162.5" y="47.3804">192.168.0.1</text><path d="M196.5,104.6445 L196.5,158.8516 " fill="none" style="stroke:#181818;stroke-width:1.0;"/><text fill="#000000" font-family="sans-serif" font-size="11" lengthAdjust="spacing" textLength="54" x="142" y="129.1538">10.1.1.10</text><text fill="#000000" font-family="sans-serif" font-size="11" lengthAdjust="spacing" textLength="109" x="142" y="141.9585">trunk=131,121,117</text><path d="M332.5,21.4688 L332.5,70.6758 " fill="none" style="stroke:#181818;stroke-width:1.0;"/><text fill="#000000" font-family="sans-serif" font-size="11" lengthAdjust="spacing" textLength="75" x="295" y="47.3804">192.168.0.10</text><path d="M192.5,163.8516 L192.5,213.0586 " fill="none" style="stroke:#181818;stroke-width:1.0;"/><text fill="#000000" font-family="sans-serif" font-size="11" lengthAdjust="spacing" textLength="150" x="114" y="176.9585">10.1.1.1 access_port=131</text><text fill="#000000" font-family="sans-serif" font-size="11" lengthAdjust="spacing" textLength="150" x="114" y="189.7632">10.1.2.1 access_port=121</text><text fill="#000000" font-family="sans-serif" font-size="11" lengthAdjust="spacing" textLength="157" x="114" y="202.5679">10.1.13.1 access_port=117</text><rect fill="#F1F1F1" height="33.9688" style="stroke:#181818;stroke-width:0.5;" width="57" x="166" y="70.6758"/><text fill="#000000" font-family="sans-serif" font-size="12" lengthAdjust="spacing" textLength="37" x="176" y="91.8145">board</text><rect fill="#F1F1F1" height="33.9688" style="stroke:#181818;stroke-width:0.5;" width="39" x="311" y="70.6758"/><text fill="#000000" font-family="sans-serif" font-size="12" lengthAdjust="spacing" textLength="19" x="321" y="91.8145">lan</text><path d="M165,223.0586 C165,213.0586 194.5,213.0586 194.5,213.0586 C194.5,213.0586 224,213.0586 224,223.0586 L224,246.0273 C224,256.0273 194.5,256.0273 194.5,256.0273 C194.5,256.0273 165,256.0273 165,246.0273 L165,223.0586 " fill="#F1F1F1" style="stroke:#181818;stroke-width:0.5;"/><path d="M165,223.0586 C165,233.0586 194.5,233.0586 194.5,233.0586 C194.5,233.0586 224,233.0586 224,223.0586 " fill="none" style="stroke:#181818;stroke-width:0.5;"/><text fill="#000000" font-family="sans-serif" font-size="12" lengthAdjust="spacing" textLength="39" x="175" y="248.1973">router</text><!--MD5=[8be31322f85f2b52ce416a57386d721f]
@startuml
nwdiag {

  network cpe_lan {
      address = "192.168.0.0/24"

      board [address = "192.168.0.1"];
      lan [address = "192.168.0.10"];
  }

  network cpe_wan{
      address = "10.1.1.0/24";
      board [address = "10.1.1.10, trunk=131,121,117"];
      router [address = "10.1.1.1 access_port=131, 10.1.2.1 access_port=121, 10.1.13.1 access_port=117", shape=database];

  }
}
@enduml

PlantUML version 1.2022.7(Mon Aug 22 19:01:30 CEST 2022)
(GPL source distribution)
Java Runtime: OpenJDK Runtime Environment
JVM: OpenJDK 64-Bit Server VM
Default Encoding: UTF-8
Language: en
Country: null
--></g></svg>
